<svg xmlns="http://www.w3.org/2000/svg" width="121.493" height="79.696" viewBox="84.894 18.652 121.493 79.696"><g data-name="cargo-transport"><path d="M127.553 18.67c-7.806.368-16.611 1.674-21.16 3.134-2.89.922-5.84 2.305-7.914 3.704-.784.522-1.89 1.506-1.89 1.69 0 .046 19.178.108 42.613.108 23.42.015 42.536-.016 42.444-.046-.138-.062-8.037-1.69-15.598-3.212-10.634-2.151-20.792-4.026-25.97-4.795-3.274-.491-3.98-.537-7.53-.584-2.152-.03-4.395-.015-4.995 0Z" fill="#0c1536" fill-rule="evenodd" data-name="Path 52"/><path d="M142.06 29.964c-.353.139-.492.384-.968 1.875-1.107 3.396-2.582 5.947-4.749 8.206-4.18 4.35-8.36 5.701-20.161 6.516-3.227.23-19.163.276-25.54.092l-4.18-.123-.246.477c-.43.845-.845 2.796-.953 4.456l-.092 1.614.553.66c.845 1.015.953 1.476.953 4.41 0 1.43-.046 2.798-.108 3.013-.092.292-.322.491-.891.722l-.784.323.046 2.658c.046 2.659.046 2.674.554 3.688.583 1.214 1.413 1.967 2.627 2.459l.86.353 18.272.047c10.066.015 18.364.015 18.456-.031.139-.046.139-.308-.03-1.045-.108-.523-.246-1.829-.292-2.89-.215-4.333.86-7.729 3.473-10.956 1.045-1.306 2.09-2.228 3.642-3.242 1.444-.938 2.182-1.23 3.918-1.614 2.72-.584 2.597-.569 18.256-1.629 4.35-.292 8.33-.569 8.837-.6.507-.045 4.81-.337 9.558-.645 4.748-.322 8.606-.614 8.575-.645-.03-.03-2.628-.354-5.794-.738-3.15-.368-8.083-.952-10.956-1.29-2.874-.339-7.914-.923-11.218-1.307-3.289-.4-6.009-.737-6.04-.768-.092-.077.769-.17 7.192-.768 3.258-.292 9.958-.923 14.906-1.383 4.949-.462 9.574-.892 10.296-.938 2.044-.169 2.029-.292-.107-.492-1.076-.107-7.53-.783-14.338-1.506-6.807-.722-13.6-1.429-15.09-1.582-1.506-.139-2.782-.308-2.843-.37-.046-.06.015-.107.153-.107.139 0 2.444-.246 5.133-.538 9.512-1.03 25.202-2.704 26.97-2.873 1.72-.17 2.335-.43.998-.43-.353 0-2.966-.2-5.793-.462a4548.394 4548.394 0 0 0-22.974-1.997c-2.95-.262-6.055-.538-6.9-.615-1.813-.184-2.643-.184-3.181.015Z" fill="#0c1536" fill-rule="evenodd" data-name="Path 53"/><path d="M136.804 54.23c-1.644.568-2.366.921-3.58 1.782-3.273 2.32-4.902 6.239-4.887 11.74.016 2.198.261 3.642.83 4.764.169.323.307.645.307.692 0 .046-1.49.076-3.304.076h-3.304v.354c0 .691.477 2.197.922 2.92.262.414.462.768.462.814 0 .03-1.998.061-4.457.061-2.443 0-4.456-.046-4.456-.092s.414-.645.906-1.337c.938-1.275 1.245-1.89 1.245-2.428 0-.292-.246-.292-12.77-.292H91.932l.108.492c.154.8 1.06 2.582 1.752 3.442.66.846 2.182 1.937 3.657 2.628l.907.43 49.713-.076 49.712-.077 1.06-.507c3.658-1.721 6.255-4.933 7.254-8.944.23-.907.292-1.706.292-3.842-.015-3.227-.2-4.118-1.337-6.454-.692-1.43-.937-1.767-2.259-3.073-1.644-1.614-2.612-2.26-4.595-3.012l-1.337-.508h-29.351l-29.351-.015-1.353.461Zm4.595 6.376c1.306.538 2.49 1.998 3.089 3.811.353 1.076.415 1.522.415 3.028s-.077 1.951-.415 3.012c-.645 1.92-1.829 3.365-3.227 3.888-.246.092-.815.169-1.276.169-2.704 0-4.856-3.09-4.856-6.992-.015-3.15 1.291-5.81 3.335-6.823.753-.385 2.152-.415 2.935-.093Zm56.26.17c1.982.983 3.273 3.61 3.273 6.669 0 4.01-2.121 7.069-4.933 7.069-2.736 0-4.902-3.135-4.887-7.07 0-4.901 3.32-8.282 6.546-6.669Zm-19.04 11.832c.215 1.568.645 2.597 1.613 3.75l.707.845-17.073.046c-9.39.015-17.104 0-17.15-.03-.03-.047.477-.692 1.122-1.43 1.352-1.537 1.767-2.32 1.875-3.596l.092-.906h28.644l.17 1.321Z" fill="#0c1536" fill-rule="evenodd" data-name="Path 54"/><path d="M102.32 81.905c-3.165.523-5.716 2.859-6.33 5.794-.247 1.168-.216 3.503.06 4.564.554 2.105 2.075 4.01 4.012 5.025 1.675.891 2.043.937 7.944.983l5.333.031v-2.874l-5.41-.046c-5.27-.046-5.44-.061-6.177-.4-1.23-.568-2.028-1.305-2.582-2.458-.46-.937-.507-1.137-.507-2.49 0-1.244.062-1.582.415-2.32.492-1.06 1.383-1.982 2.459-2.55l.814-.431 5.502-.046 5.486-.046V81.736l-5.102.016c-2.812.015-5.47.076-5.916.153Z" fill="#0c1536" fill-rule="evenodd" data-name="Path 55"/><path d="M125.371 82.12c-.338.216-.86.753-1.152 1.184-.922 1.398-8.882 14.706-8.882 14.83 0 .06.814.091 1.798.076l1.813-.062 3.673-6.054c2.028-3.335 3.703-6.055 3.718-6.055.047 0 2.828 4.61 2.828 4.687 0 .046-.984.092-2.182.108l-2.182.046-.815 1.306-.799 1.306 3.873.077 3.872.077 1.276 2.074c.707 1.138 1.337 2.167 1.398 2.29.108.17.569.23 1.936.261 1.537.031 1.783 0 1.706-.2-.092-.215-4.303-7.452-7.484-12.831-1.629-2.75-2.166-3.32-3.165-3.442-.446-.062-.738.015-1.23.322Z" fill="#0c1536" fill-rule="evenodd" data-name="Path 56"/><path d="M138.541 90.035v8.313l1.383-.03 1.383-.047V84.656h5.317c3.32 0 5.548.061 5.963.17 1.014.245 1.736.921 2.013 1.874.46 1.552-.139 2.966-1.568 3.657-.722.354-.845.37-5.301.415l-4.58.046V93.57h6.07l2.336 2.336 2.351 2.351 2.075.015c1.137.016 2.074.016 2.074 0 0-.03-1.075-1.106-2.382-2.412-1.306-1.291-2.382-2.398-2.382-2.444 0-.046.477-.307 1.06-.568 1.307-.615 2.367-1.63 2.905-2.782.369-.768.415-1.06.415-2.412 0-1.337-.061-1.645-.415-2.413-.691-1.475-1.936-2.474-3.965-3.135-.753-.246-1.598-.277-7.79-.338l-6.962-.046v8.314Z" fill="#0c1536" fill-rule="evenodd" data-name="Path 57"/><path d="M167.216 81.905c-4.272.707-6.961 4.165-6.639 8.56.262 3.626 2.413 6.423 5.702 7.438 1.03.322 1.352.338 7.053.353h5.993v-4.533l.016-4.534-5.333-.03-5.347-.016v2.581h7.837v3.704l-4.564-.046-4.58-.046-.86-.4c-1.168-.553-2.044-1.382-2.551-2.412-.384-.784-.43-1.03-.43-2.49 0-1.398.046-1.72.384-2.381.476-.984 1.552-2.06 2.535-2.536.769-.384.784-.384 6.27-.43l5.486-.046V81.736l-5.102.016c-2.812.015-5.455.076-5.87.153Z" fill="#0c1536" fill-rule="evenodd" data-name="Path 58"/><path d="M188.561 81.844c-3.273.43-6.009 2.827-6.685 5.824-.246 1.076-.2 3.504.077 4.58.569 2.166 2.198 4.195 4.134 5.147 1.567.769 2.889.938 6.808.876 2.873-.046 3.488-.107 4.364-.384 2.643-.845 4.702-3.073 5.378-5.855.446-1.844.17-4.58-.645-6.162-.4-.799-1.43-1.967-2.274-2.582-1.737-1.26-3.181-1.552-7.546-1.521-1.736 0-3.35.046-3.611.077Zm8.544 3.32c1.03.49 2.029 1.536 2.49 2.535.491 1.09.553 3.212.123 4.349-.461 1.214-1.353 2.166-2.597 2.781l-1.03.507h-7.684l-1.03-.507c-1.121-.553-1.89-1.321-2.458-2.474-.277-.584-.338-.968-.353-2.244 0-1.337.046-1.644.4-2.381.506-1.092 1.075-1.752 1.935-2.26 1.353-.783 1.552-.814 5.579-.768l3.765.03.86.431Z" fill="#0c1536" fill-rule="evenodd" data-name="Path 59"/></g></svg>