<svg xmlns="http://www.w3.org/2000/svg" width="17.759" height="17.755" viewBox="159 10607.001 17.759 17.755"><path d="M167.881 10611.326a4.545 4.545 0 0 0-4.552 4.552 4.545 4.545 0 0 0 4.552 4.552 4.545 4.545 0 0 0 4.552-4.552 4.545 4.545 0 0 0-4.552-4.552Zm0 7.512a2.965 2.965 0 0 1-2.96-2.96 2.962 2.962 0 0 1 2.96-2.96 2.962 2.962 0 0 1 2.96 2.96 2.965 2.965 0 0 1-2.96 2.96Zm5.8-7.698a1.06 1.06 0 0 1-1.061 1.061 1.062 1.062 0 1 1 1.062-1.062Zm3.015 1.077c-.067-1.422-.392-2.682-1.434-3.72-1.038-1.038-2.298-1.363-3.72-1.434-1.466-.083-5.86-.083-7.326 0-1.418.067-2.678.392-3.72 1.43-1.042 1.038-1.363 2.298-1.434 3.72-.083 1.466-.083 5.86 0 7.326.067 1.422.392 2.682 1.434 3.72 1.042 1.038 2.298 1.363 3.72 1.434 1.466.083 5.86.083 7.326 0 1.422-.067 2.682-.392 3.72-1.434 1.038-1.038 1.363-2.298 1.434-3.72.084-1.466.084-5.856 0-7.322Zm-1.893 8.895a2.996 2.996 0 0 1-1.688 1.687c-1.169.464-3.942.357-5.234.357-1.291 0-4.069.103-5.233-.357a2.996 2.996 0 0 1-1.688-1.687c-.464-1.17-.357-3.942-.357-5.234 0-1.292-.103-4.069.357-5.234a2.996 2.996 0 0 1 1.688-1.687c1.168-.464 3.942-.357 5.233-.357 1.292 0 4.069-.103 5.234.357a2.996 2.996 0 0 1 1.688 1.687c.463 1.17.356 3.942.356 5.234 0 1.292.107 4.069-.356 5.234Z" fill="#fff" fill-rule="evenodd" data-name="Icon awesome-instagram"/></svg>