<svg xmlns="http://www.w3.org/2000/svg" width="41" height="41" viewBox="663 4268 41 41"><g data-name="Icon feather-instagram"><path d="M675.478 4269.783h17.826c5.898 0 10.696 4.798 10.696 10.695v17.826c0 5.898-4.798 10.696-10.696 10.696h-17.826c-5.897 0-10.695-4.798-10.695-10.696v-17.826c0-5.897 4.798-10.695 10.695-10.695Zm17.826 35.652a7.139 7.139 0 0 0 7.13-7.13v-17.827a7.139 7.139 0 0 0-7.13-7.13h-17.826a7.139 7.139 0 0 0-7.13 7.13v17.826a7.139 7.139 0 0 0 7.13 7.13h17.826Z" fill="#0c1536" fill-rule="evenodd" data-name="Path 49"/><path d="M684.466 4280.4c.436 0 .877.033 1.31.098a8.85 8.85 0 0 1 4.995 2.514 8.85 8.85 0 0 1 2.514 4.995 8.898 8.898 0 0 1-4.81 9.269 8.953 8.953 0 0 1-4.004.951 8.857 8.857 0 0 1-6.305-2.61 8.898 8.898 0 0 1-1.659-10.31 8.907 8.907 0 0 1 7.959-4.906Zm.005 14.262c.829 0 1.66-.197 2.402-.571a5.339 5.339 0 0 0 2.885-5.561 5.317 5.317 0 0 0-4.505-4.506 5.383 5.383 0 0 0-.787-.058 5.319 5.319 0 0 0-4.774 2.944 5.339 5.339 0 0 0 .995 6.186 5.315 5.315 0 0 0 3.784 1.566Z" fill="#0c1536" fill-rule="evenodd" data-name="Path 50"/></g></svg>