<svg xmlns="http://www.w3.org/2000/svg" width="23.685" height="16.655" viewBox="219 10609 23.685 16.655"><path d="M242.19 10611.606a2.976 2.976 0 0 0-2.093-2.108c-1.848-.498-9.254-.498-9.254-.498s-7.407 0-9.254.498a2.976 2.976 0 0 0-2.094 2.108c-.495 1.859-.495 5.738-.495 5.738s0 3.879.495 5.738a2.932 2.932 0 0 0 2.094 2.074c1.847.498 9.254.498 9.254.498s7.406 0 9.254-.498a2.932 2.932 0 0 0 2.094-2.074c.495-1.86.495-5.738.495-5.738s0-3.88-.495-5.738Zm-13.77 9.26v-7.044l6.191 3.522-6.19 3.521Z" fill="#fff" fill-rule="evenodd" data-name="Icon awesome-youtube"/></svg>